<svg width="138" height="120" viewBox="0 0 138 120" fill="none" xmlns="http://www.w3.org/2000/svg">
<circle cx="78" cy="60" r="60" fill="url(#paint0_radial)"/>
<path d="M48.5303 57.8594H106.665V90.7402C106.665 91.8447 105.769 92.7402 104.665 92.7402H50.5303C49.4257 92.7402 48.5303 91.8447 48.5303 90.7402V57.8594Z" fill="url(#paint1_linear)"/>
<path d="M48.5803 57.9094H106.615V90.7402C106.615 91.8171 105.742 92.6902 104.665 92.6902H50.5303C49.4533 92.6902 48.5803 91.8171 48.5803 90.7402V57.9094Z" stroke="white" stroke-opacity="0.5" stroke-width="0.1"/>
<path d="M55.467 37.5446C55.7434 36.735 56.5042 36.1909 57.3597 36.1909H97.3395C98.1791 36.1909 98.9293 36.7153 99.2178 37.5038L106.665 57.8593H48.5303L55.467 37.5446Z" fill="url(#paint2_linear)"/>
<path d="M55.5143 37.5608C55.7838 36.7714 56.5256 36.2409 57.3597 36.2409H97.3395C98.1581 36.2409 98.8896 36.7522 99.1708 37.5209L106.593 57.8093H48.6002L55.5143 37.5608Z" stroke="white" stroke-opacity="0.5" stroke-width="0.1"/>
<line x1="69.1133" y1="49.4316" x2="88.1962" y2="49.4316" stroke="#290B5A" stroke-linecap="round"/>
<path d="M63.9831 38.9936L73.6015 49.0929C73.7903 49.2911 74.052 49.4032 74.3257 49.4032H83.5243C83.7895 49.4032 84.0439 49.2979 84.2314 49.1103L88.5279 44.8139C88.9139 44.4279 88.919 43.8036 88.5394 43.4113L74.0939 28.4843C73.6983 28.0756 73.042 28.0786 72.6503 28.491L63.9823 37.6152C63.6153 38.0015 63.6157 38.6077 63.9831 38.9936Z" fill="url(#paint3_linear)" stroke="#290B5A" stroke-width="0.1" stroke-linejoin="round"/>
<path fill-rule="evenodd" clip-rule="evenodd" d="M74.3229 69.3382C74.293 69.0632 74.4382 69.033 74.5145 69.0523C74.5145 69.0523 75.7771 69.5886 78.2985 69.6326C80.8198 69.6766 82.2074 69.0711 82.2074 69.0711C82.2838 69.0522 82.4288 69.0831 82.3976 69.3579C82.3664 69.6328 82.3186 70.427 82.2986 70.7897L83.7497 70.7932C83.928 70.7873 84.2574 70.89 84.1493 71.3479C84.1274 71.4411 84.0951 71.6005 84.0537 71.8051C83.8407 72.8578 83.3853 75.1079 82.8404 75.698C82.4574 76.1554 81.9413 76.3832 81.5401 76.4777C81.2059 76.5771 80.8574 76.5596 80.7369 76.5535C80.7196 76.5527 80.707 76.552 80.6998 76.552C80.4315 76.9523 79.7459 77.8175 79.1495 78.0757C78.9551 78.1459 78.9566 78.2165 78.9579 78.272L78.9581 78.2853C78.9886 78.8009 79.1182 79.9544 79.3919 80.4439C79.4282 80.517 79.4384 80.5725 79.4454 80.6107C79.4531 80.6523 79.4569 80.6732 79.4868 80.6733L79.8496 80.6741C79.8878 80.6742 79.9794 80.6745 80.0404 80.751C80.0729 80.7919 80.13 80.7909 80.1921 80.7899C80.2753 80.7886 80.3675 80.7871 80.4219 80.8856C80.4801 80.991 80.468 81.1036 80.4618 81.1617C80.4604 81.1743 80.4594 81.1843 80.4593 81.1912L81.0321 81.1926C81.1022 81.1927 81.2421 81.2274 81.2417 81.3649L81.2389 82.5105C81.2389 82.5314 81.2374 82.5484 81.2362 82.5624C81.2307 82.625 81.2307 82.6251 81.3914 82.6254L81.8878 82.6267C81.9197 82.6267 81.9833 82.6307 81.9829 82.7987L81.9816 83.3143C81.9815 83.3524 81.9814 83.4288 81.8095 83.4284L74.8422 83.4114C74.6704 83.4109 74.6706 83.3346 74.6707 83.2964L74.6719 82.7809C74.6723 82.6128 74.7359 82.6092 74.7678 82.6093L75.2642 82.6105C75.425 82.6109 75.425 82.6109 75.4198 82.5482C75.4186 82.5342 75.4172 82.5172 75.4173 82.4963L75.4201 81.3507C75.4204 81.2132 75.5605 81.1792 75.6305 81.1794L76.2033 81.1808C76.2033 81.1739 76.2023 81.1639 76.201 81.1512C76.195 81.0932 76.1835 80.9805 76.2422 80.8754C76.2971 80.7771 76.3893 80.7791 76.4725 80.7808C76.5346 80.7822 76.5917 80.7834 76.6244 80.7426C76.6857 80.6664 76.7774 80.6666 76.8156 80.6667L77.1783 80.6676C77.2082 80.6677 77.2122 80.6469 77.22 80.6052C77.2272 80.5671 77.2377 80.5116 77.2744 80.4387C77.5505 79.9506 77.6857 78.7977 77.7188 78.2822L77.719 78.269C77.7205 78.2135 77.7224 78.1429 77.5284 78.0718C76.9333 77.8106 76.2519 76.9421 75.9855 76.5405C75.9783 76.5405 75.9657 76.5411 75.9484 76.5418C75.8279 76.5473 75.4793 76.5631 75.1456 76.4621C74.7449 76.3656 74.2299 76.1353 73.8492 75.6761C73.3071 75.0833 72.8628 72.831 72.6549 71.7773L72.6549 71.7773L72.6549 71.7772L72.6548 71.7768L72.6548 71.7768C72.6144 71.5722 72.583 71.4128 72.5615 71.3196C72.4557 70.8611 72.7856 70.7601 72.9638 70.7669L74.4149 70.7704C74.3967 70.4076 74.3528 69.6132 74.3229 69.3382ZM73.3555 71.4054C73.1322 71.4015 73.1852 71.6625 73.2256 71.8611C73.2308 71.8869 73.2358 71.9116 73.24 71.9345C73.2763 72.1343 73.4452 72.9579 73.8895 74.2828C74.3337 75.6077 75.1924 75.7041 75.5663 75.5867C75.3104 75.0334 74.7703 73.2625 74.6615 72.6498C74.5527 72.0371 74.4174 71.424 74.2581 71.4212L73.3555 71.4054ZM83.4744 71.94C83.5182 71.7421 83.5757 71.4821 83.3525 71.4821L82.4497 71.4821C82.2904 71.4821 82.1444 72.0928 82.0249 72.7035C81.9054 73.3142 81.3345 75.0755 81.069 75.6242C81.4407 75.7481 82.301 75.6667 82.7683 74.3497C83.2356 73.0327 83.4188 72.2123 83.4587 72.0131C83.4632 71.9903 83.4687 71.9656 83.4744 71.94ZM79.6437 73.9933L78.3425 74.8122L77.0471 73.9844L78.3383 75.8671L78.3383 75.8688L78.3389 75.8679L78.3395 75.8689L78.3395 75.867L79.6437 73.9933ZM78.3556 71.2218L78.3556 71.2182L78.3545 71.22L78.354 71.2191L78.354 71.2208L77.0404 73.4656L78.3435 74.2828L78.3435 74.2847L78.345 74.2837L78.345 74.2837L78.345 74.2837L79.6537 73.4756L78.3556 71.2218Z" fill="#FFB636"/>
<path d="M82.3442 69.1107C82.341 69.4773 80.5672 69.759 78.3823 69.74C76.1975 69.7209 74.3758 69.4073 74.379 69.0407C74.3822 68.6742 76.2091 68.3934 78.3939 68.4124C80.5788 68.4315 82.3474 68.7441 82.3442 69.1107Z" fill="#FFD469"/>
<path d="M81.1976 70.4172C81.3928 70.4172 81.4277 70.4172 81.7816 70.2933C81.7378 70.5289 81.5069 72.314 81.4277 72.5942C81.2159 73.3428 80.9767 74.4997 80.6666 74.7233C80.6077 74.7658 80.348 74.7233 80.2514 74.661C80.1547 74.5988 80.4896 73.957 80.8967 72.5942C81.1268 71.1252 81.056 70.488 81.1976 70.4172Z" fill="#FFCC4E"/>
<path d="M36.2757 38.2284C30.8965 42.3236 25.6853 46.2898 20.1861 47.7331C17.44 48.4538 14.6236 48.5446 11.6793 47.7064C8.73409 46.8681 5.65503 45.0984 2.38725 42.0892C2.03859 41.7682 1.46855 41.821 1.2085 42.2266C1.01269 42.532 1.0603 42.9354 1.32625 43.184C6.52337 48.0414 11.3356 49.9112 15.8893 49.9112C19.6954 49.9112 23.3096 48.6047 26.8042 46.6658C30.2976 44.7276 33.6788 42.1532 37.0174 39.6112L37.0187 39.6102C42.3986 35.5145 47.6104 31.5486 53.1098 30.1052C55.8561 29.3845 58.6726 29.2935 61.6169 30.1313C64.5621 30.9693 67.6411 32.7384 70.9086 35.7467C71.2573 36.0677 71.8273 36.0148 72.0873 35.6092C72.2841 35.3023 72.2276 34.8927 71.9627 34.6454C68.4907 31.4032 65.1903 29.493 62.0228 28.5829C58.8544 27.6725 55.8249 27.7644 52.8979 28.5176C47.0534 30.0214 41.6127 34.1644 36.2829 38.2229L36.2757 38.2284Z" fill="#35F0D0" stroke="#35F0D0" stroke-width="0.2"/>
<path d="M36.9469 23.7999L36.8978 23.7128L36.9469 23.7999C40.5415 21.7767 43.6486 20.0281 46.493 18.765C49.3369 17.5021 51.9113 16.7278 54.4391 16.6488C59.4867 16.4912 64.3851 19.1061 70.8964 26.2577C71.2053 26.5971 71.7592 26.5937 72.0456 26.2262C72.2671 25.9421 72.2447 25.534 72.0052 25.2691C65.4047 17.9693 60.361 15.0422 55.0152 15.0534C52.3458 15.0589 49.6099 15.7973 46.5779 17.0759C43.5465 18.3543 40.2128 20.1754 36.3483 22.3507L36.3445 22.3529C32.7515 24.3744 29.6457 26.1219 26.8023 27.3845C23.9586 28.6472 21.3843 29.4217 18.8566 29.5009C13.8093 29.659 8.91109 27.0452 2.40005 19.8943C2.09085 19.5548 1.53661 19.5583 1.25015 19.9261C1.02962 20.2093 1.04541 20.612 1.28583 20.8779C7.87665 28.1675 12.9135 31.0969 18.249 31.0969C20.9231 31.0969 23.663 30.3604 26.6996 29.0815C29.7358 27.8028 33.0748 25.9791 36.9469 23.7999Z" fill="#35F0D0" stroke="#35F0D0" stroke-width="0.2"/>
<defs>
<radialGradient id="paint0_radial" cx="0" cy="0" r="1" gradientUnits="userSpaceOnUse" gradientTransform="translate(111.488 23.7209) rotate(118.772) scale(178.29 327.682)">
<stop stop-color="#FF9C92"/>
<stop offset="1" stop-color="#85FFDA" stop-opacity="0.5"/>
</radialGradient>
<linearGradient id="paint1_linear" x1="14.7115" y1="114.876" x2="182.004" y2="23.4094" gradientUnits="userSpaceOnUse">
<stop offset="0.125" stop-color="#8085FF"/>
<stop offset="0.770833" stop-color="#D52DB0" stop-opacity="0.9"/>
</linearGradient>
<linearGradient id="paint2_linear" x1="14.7115" y1="71.6104" x2="137.161" y2="-36.1607" gradientUnits="userSpaceOnUse">
<stop offset="0.125" stop-color="#8085FF"/>
<stop offset="0.770833" stop-color="#D52DB0" stop-opacity="0.9"/>
</linearGradient>
<linearGradient id="paint3_linear" x1="48.2624" y1="63.1543" x2="132.164" y2="30.2601" gradientUnits="userSpaceOnUse">
<stop offset="0.309343" stop-color="#4C249F"/>
<stop offset="0.795886" stop-color="#FF77E1" stop-opacity="0.9"/>
</linearGradient>
</defs>
</svg>
