<svg width="16" height="16" viewBox="0 0 16 16" fill="none" xmlns="http://www.w3.org/2000/svg">
<path d="M8.46392 6.69702C10.2318 6.69702 11.4639 7.41357 11.4639 8.05664C11.4639 8.69971 10.2318 9.41626 8.46392 9.41626C6.69602 9.41626 5.46392 8.69971 5.46392 8.05664C5.46392 7.41357 6.69601 6.69702 8.46392 6.69702ZM11.4639 9.23332C10.8058 9.7502 9.7191 10.0829 8.46392 10.0829C7.20868 10.0829 6.12191 9.75016 5.46387 9.23324V10.1034C5.46392 10.7465 6.69601 11.4631 8.46392 11.4631C10.2314 11.4631 11.4633 10.7468 11.4639 10.1039V9.23332ZM11.4639 11.2801C10.8058 11.797 9.7191 12.1297 8.46392 12.1297C7.20868 12.1297 6.12191 11.797 5.46387 11.28V12.1502C5.46392 12.7933 6.69601 13.5098 8.46392 13.5098C10.2314 13.5098 11.4633 12.7936 11.4639 12.1507V11.2801ZM5.46387 13.3268V14.197C5.46392 14.8401 6.69601 15.5566 8.46392 15.5566C10.2314 15.5566 11.4633 14.8404 11.4639 14.1974V13.3269C10.8058 13.8438 9.7191 14.1765 8.46392 14.1765C7.20868 14.1765 6.12191 13.8438 5.46387 13.3268ZM3.96392 3.27588C5.73182 3.27588 6.96392 2.55933 6.96392 1.91626C6.96392 1.2732 5.73182 0.556641 3.96392 0.556641C2.19602 0.556641 0.963919 1.27319 0.963919 1.91626C0.963919 2.55933 2.19601 3.27588 3.96392 3.27588ZM3.96387 11.4633C4.24263 11.4638 4.52108 11.4449 4.7972 11.4066V10.0316C4.52076 10.0661 4.24245 10.0834 3.96387 10.0833C2.70887 10.0833 1.6222 9.74996 0.963867 9.23332V10.1033C0.963867 10.7466 2.19553 11.4633 3.96387 11.4633ZM3.96392 5.32267C5.73142 5.32267 6.96332 4.60645 6.96387 3.96348V3.09294C6.30582 3.60982 5.2191 3.94255 3.96392 3.94255C2.70868 3.94255 1.62191 3.60978 0.963867 3.09286V3.96305C0.963919 4.60612 2.19601 5.32267 3.96392 5.32267ZM3.96387 7.36998C4.3368 7.37123 4.70902 7.33719 5.07553 7.26831C5.42553 6.79663 6.08553 6.41996 6.92387 6.21163C6.94991 6.14757 6.96349 6.07912 6.96387 6.00996V5.13996C6.30553 5.65663 5.21887 5.98996 3.96387 5.98996C2.70887 5.98996 1.6222 5.65663 0.963867 5.13996V6.00996C0.963867 6.65332 2.19553 7.36998 3.96387 7.36998ZM3.96387 9.41663C4.24262 9.41716 4.52108 9.39824 4.7972 9.35999V8.05664C4.79661 8.03271 4.79772 8.00876 4.80053 7.98499C4.52296 8.0193 4.24355 8.03655 3.96387 8.03664C2.70887 8.03664 1.6222 7.70331 0.963867 7.18664V8.05664C0.963867 8.69997 2.19553 9.41663 3.96387 9.41663ZM3.96387 13.51C4.24263 13.5105 4.52108 13.4916 4.7972 13.4533V12.0783C4.52076 12.1128 4.24245 12.13 3.96387 12.13C2.70887 12.13 1.6222 11.7966 0.963867 11.28V12.15C0.963867 12.7933 2.19553 13.51 3.96387 13.51ZM12.9638 3.27588C14.7317 3.27588 15.9638 2.55933 15.9638 1.91626C15.9638 1.2732 14.7317 0.556641 12.9638 0.556641C11.1959 0.556641 9.96382 1.27319 9.96382 1.91626C9.96382 2.55933 11.1959 3.27588 12.9638 3.27588ZM15.9639 9.23332C15.3055 9.74996 14.2189 10.0833 12.9639 10.0833C12.6853 10.0834 12.407 10.0661 12.1305 10.0316V11.4066C12.4067 11.4449 12.6851 11.4638 12.9639 11.4633C14.7322 11.4633 15.9639 10.7466 15.9639 10.1033V9.23332ZM15.9639 3.09286C15.3058 3.60978 14.2191 3.94255 12.9638 3.94255C11.7086 3.94255 10.6219 3.60982 9.96387 3.09294V3.96348C9.96442 4.60645 11.1963 5.32267 12.9638 5.32267C14.7317 5.32267 15.9638 4.60612 15.9639 3.96305V3.09286ZM15.9639 5.13997C15.3055 5.65664 14.2189 5.98997 12.9639 5.98997C11.7089 5.98997 10.6222 5.65664 9.96387 5.13997V6.00997C9.96425 6.07913 9.97782 6.14758 10.0039 6.21164C10.8422 6.41997 11.5022 6.79664 11.8522 7.26832C12.2187 7.3372 12.5909 7.37124 12.9639 7.36999C14.7322 7.36999 15.9639 6.65333 15.9639 6.00999V5.13997ZM15.9639 7.18664C15.3055 7.70331 14.2189 8.03664 12.9639 8.03664C12.6853 8.03666 12.407 8.01941 12.1305 7.98498V9.35998C12.4067 9.39823 12.6851 9.41716 12.9639 9.41663C14.7322 9.41663 15.9639 8.69998 15.9639 8.05665V7.18664ZM15.9639 11.28C15.3055 11.7966 14.2189 12.13 12.9639 12.13C12.6853 12.13 12.407 12.1128 12.1305 12.0783V13.4533C12.4067 13.4916 12.6851 13.5105 12.9639 13.51C14.7322 13.51 15.9639 12.7933 15.9639 12.15V11.28Z" fill="#BBB2CE"/>
</svg>
