<svg fill="#BBB2CE" width="50" height="52" viewBox="0 0 40 52" xmlns="http://www.w3.org/2000/svg">
    <path d="M40.5405 42.9219V42.9219C40.5406 43.0753 40.5277 43.2284 40.5021 43.3796C40.4534 43.71 40.3502 44.0298 40.1968 44.3253L40.1072 44.4815C40.0005 44.6676 39.8706 44.839 39.7208 44.9913L39.5841 45.1301L39.5286 45.1735V45.1735L39.3963 45.2689V45.2819C39.2511 45.3817 39.0568 45.5119 38.9544 45.5704C38.2527 46.0549 37.534 46.5083 36.7982 46.9305C36.4545 47.1344 36.1043 47.3231 35.7564 47.5097C35.4981 47.6485 35.2333 47.7808 34.9708 47.911C34.864 47.9674 34.758 48.0195 34.6527 48.0672C34.4136 48.1843 34.1809 48.2971 33.9375 48.4034L33.8649 48.4338C33.5717 48.5784 33.2743 48.7078 32.9725 48.8221C32.938 48.8391 32.9024 48.8536 32.8658 48.8654C32.5989 48.9782 32.33 49.0824 32.0631 49.1843C31.982 49.2147 31.9009 49.2494 31.8155 49.2798C31.1942 49.514 30.5644 49.7244 29.9325 49.9153L29.8429 49.9457C29.5291 50.0411 29.2024 50.1322 28.8865 50.2168C28.3634 50.3557 27.8319 50.4858 27.296 50.6008C26.9566 50.6745 26.615 50.744 26.2756 50.8047L25.7098 50.9045C25.3576 50.9652 25.0032 51.0173 24.6424 51.065C24.2816 51.1127 23.9187 51.1518 23.5536 51.1865C23.1886 51.2212 22.8342 51.2515 22.4734 51.2776C21.7497 51.3253 21.0239 51.3513 20.2959 51.3513C18.8683 51.353 17.4421 51.261 16.0262 51.0758C15.1851 50.963 14.3461 50.8242 13.5221 50.642C12.698 50.4598 11.9551 50.2863 11.1823 50.0628V50.0628C10.5824 49.8915 9.99317 49.6962 9.40609 49.4923C8.21686 49.0804 7.05213 48.5987 5.91777 48.0498C4.4579 47.3391 3.05089 46.5213 1.70787 45.603L1.5627 45.5075C1.47731 45.4511 1.39191 45.3947 1.31079 45.334L1.06742 45.1583C1.00764 45.1019 0.952137 45.0455 0.896631 44.9848C0.841126 44.924 0.78989 44.8676 0.742923 44.8112C0.64758 44.6975 0.563222 44.5748 0.491012 44.4446V44.4446C0.345423 44.2049 0.237391 43.9437 0.170787 43.6702C0.107074 43.4246 0.0754915 43.1715 0.0768542 42.9175C0.077559 42.7943 0.0846851 42.6712 0.0982026 42.5488C0.133787 42.2427 0.218147 41.9445 0.347978 41.6659C0.373596 41.6095 0.399214 41.5531 0.429102 41.5011C0.45899 41.449 0.493147 41.3883 0.527305 41.3319C0.561462 41.2755 0.599889 41.2191 0.638316 41.1627C2.02068 38.8166 3.68434 36.654 5.59114 34.7245C5.78327 34.5293 5.97754 34.3362 6.17395 34.1453C6.37035 33.9544 6.56889 33.7701 6.76957 33.5835C6.92327 33.4404 7.07485 33.3037 7.23282 33.1649V33.1649C7.23411 33.1573 7.23887 33.1509 7.24563 33.1475C7.9053 32.564 8.58845 31.9978 9.29935 31.4621L9.38047 31.397L9.47013 31.3276V31.3276C9.56791 31.241 9.67133 31.1613 9.77968 31.089C9.88805 31.0092 10.0014 30.9367 10.1191 30.872C10.2844 30.7718 10.4563 30.6834 10.6336 30.6074C10.719 30.5683 10.8129 30.5336 10.9005 30.5033C11.0853 30.4381 11.2743 30.3859 11.4662 30.3471C11.7599 30.2862 12.0588 30.2557 12.3586 30.256C12.6935 30.2556 13.0274 30.2949 13.3534 30.3731C13.4601 30.3992 13.5669 30.4295 13.6715 30.4599C14.1668 30.615 14.6314 30.8573 15.0442 31.1757C15.1082 31.2234 15.1716 31.2733 15.2342 31.3254C15.3046 31.384 15.373 31.4447 15.4477 31.5098C15.5834 31.6373 15.7117 31.7728 15.8319 31.9154L15.9173 32.0239C16.1137 32.2842 16.3123 32.538 16.5172 32.7939C16.9257 33.3001 17.3484 33.7925 17.7853 34.2712C17.9988 34.5141 18.2272 34.7505 18.4535 34.9848C18.9296 35.4729 19.4227 35.9523 19.9244 36.41C20.3834 36.8286 20.8509 37.2299 21.3356 37.6247H21.3484L21.6024 37.8416C21.7006 37.9241 21.8159 38.0108 21.9034 38.0802L21.9418 38.1106C22.3153 38.3399 22.7489 38.4474 23.1843 38.4186C24.2393 38.3458 25.0939 37.5203 25.2188 36.4534C25.2955 35.7844 25.0657 35.1167 24.5954 34.6421L23.3786 33.4056C23.3658 33.4056 23.3572 33.3883 23.3444 33.3753L20.4411 30.4208L17.5676 27.5011L0.935058 10.601L0.952137 10.588C0.354919 10.0231 0.0109306 9.23472 1.11933e-07 8.40576V8.40576C-0.000132678 7.91642 0.117886 7.43451 0.343709 7.0023L0.358653 6.97627C0.527717 6.70297 0.723708 6.44787 0.943598 6.21488V6.21488V6.21488L1.00764 6.16282V6.16282C1.0418 6.14113 1.0845 6.11076 1.13573 6.07172V6.07172C1.28517 5.9676 1.47517 5.84178 1.57764 5.77888C2.11776 5.40795 2.67068 5.0522 3.22787 4.72031C14.3036 -1.92496 28.1487 -1.52688 38.8369 5.74417L38.9778 5.83961C39.1486 5.95241 39.313 6.07389 39.4753 6.19319C39.7014 6.39941 39.8964 6.63843 40.0538 6.90252C40.3347 7.37803 40.4761 7.92513 40.4615 8.47952C40.4497 8.83576 40.3775 9.18726 40.2481 9.51856C40.1643 9.75467 40.0479 9.97745 39.9022 10.1802C38.9051 11.8672 37.762 13.4607 36.4865 14.9415C34.9141 16.7699 33.1551 18.4234 31.2391 19.8743L31.0597 20.0131C30.8643 20.1927 30.6495 20.3492 30.4193 20.4795C29.739 20.8781 28.9651 21.082 28.1798 21.0695H28.1585C27.1408 21.0455 26.1722 20.62 25.4579 19.8829C23.765 18.1866 19.2135 13.7355 19.2135 13.7355L18.9467 13.5055C18.852 13.4207 18.7529 13.3411 18.6499 13.2669L18.6115 13.2365C18.309 13.0488 17.9644 12.9428 17.6103 12.9285C16.5456 12.8857 15.6031 13.6225 15.3708 14.6791C15.2206 15.4106 15.4448 16.1697 15.9664 16.6964L39.5927 40.744C40.1893 41.3071 40.532 42.0945 40.5405 42.9219Z"/>
</svg>
