<svg width="209" height="138" viewBox="0 0 209 138" fill="none" xmlns="http://www.w3.org/2000/svg">
<path d="M-4.33691 87.7801C-4.33691 87.7801 41.9595 72.7868 59.674 48.9595C77.3885 25.1322 86.9962 41.7058 93.9442 46.7357C95.6779 47.9921 97.2009 50.1984 99.514 51.2096C102.391 52.4989 105.434 53.3829 108.556 53.8361C109.675 53.9981 110.684 56.4102 111.628 56.9574C114.459 58.6033 116.535 59.1899 117.966 57.5396C127.758 46.2016 126.235 34.0319 111.628 32.2546C106.739 31.6548 111.369 26.927 108.722 25.7889C108.052 25.5028 107.476 25.0348 107.059 24.4381C106.642 23.8414 106.402 23.14 106.365 22.4137L106.172 18.4432C106.172 18.4432 83.0768 -11.0574 45.2382 19.3844C8.8085 48.7144 -4.33681 43.0527 -4.33681 43.0527L-4.33691 87.7801Z" fill="#FEFDFF"/>
<path d="M208.027 112.203C156.45 126.693 160.971 138.359 123.958 129.595C94.7044 122.67 104.839 114.124 96.7804 114.356C82.033 114.794 81.9803 97.043 75.796 100.392C69.9322 103.57 74.0097 108.543 74.0097 108.543C74.0097 108.543 90.3021 140.631 101.845 140.631H208.027V112.203Z" fill="white"/>
<path d="M83.7514 140.631C83.7514 140.631 57.6844 118.213 47.6552 114.803C39.3949 111.975 24.0374 112.036 16.8524 114.803L-3.85547 122.766V140.631H83.7514Z" fill="white"/>
<path d="M94.4389 49.7519C94.6481 49.5051 94.9209 49.3201 95.2278 49.2168C95.5348 49.1135 95.8642 49.0958 96.1805 49.1656C96.4968 49.2355 96.788 49.3902 97.0225 49.6131C97.2571 49.836 97.4261 50.1186 97.5113 50.4304C97.9502 51.9275 96.6817 53.2102 95.4528 53.8186L96.7695 55.5347C97.6824 54.6591 98.6349 53.7005 99.798 53.1489C101.202 52.4835 104.257 52.8775 103.564 55.1319L105.679 55.7141C106.399 53.3634 109.362 56.1125 109.928 56.9661C110.806 58.2794 111.455 59.6715 112.562 60.8447L114.115 59.2994C114.015 59.2384 113.929 59.1556 113.865 59.0573C113.801 58.9589 113.76 58.8473 113.744 58.7309C113.729 58.6145 113.741 58.4962 113.777 58.3847C113.814 58.2732 113.876 58.1714 113.957 58.0868C114.308 57.4652 114.747 57.366 115.274 57.7891C116.428 58.0693 116.753 59.1024 116.951 60.1662C117.179 61.3919 119.123 61.0898 119.106 59.8729C119.092 59.2177 119.218 58.5671 119.475 57.9641C119.732 57.361 120.114 56.8192 120.596 56.3744C121.079 55.9296 121.65 55.592 122.273 55.3838C122.896 55.1757 123.557 55.1018 124.21 55.1669C125.259 55.2501 125.527 53.9587 124.983 53.2977C122.257 49.9138 124.237 45.383 128.349 44.5425C129.666 44.2799 129.179 42.5332 128.06 42.3931C124.61 41.9554 122.327 37.8623 123.745 34.7104C123.846 34.5212 123.89 34.307 123.872 34.0935C123.854 33.8799 123.775 33.6761 123.644 33.5062C123.513 33.3363 123.336 33.2076 123.133 33.1355C122.931 33.0634 122.712 33.0509 122.503 33.0995C119.929 33.7358 117.21 33.4038 114.866 32.167C113.861 31.6461 108.488 27.5049 111.069 26.161C111.842 25.7582 111.758 24.2917 110.806 24.1604C109.05 23.9196 109.05 21.8841 108.668 20.4745C108.238 18.9775 107.49 17.5904 106.474 16.4077C104.242 13.5752 101.379 11.3001 98.1126 9.76248C91.3007 6.5931 83.1105 4.82455 75.6271 5.56436C66.5548 6.43988 58.1935 10.2965 50.5038 14.9893C42.0811 20.1286 34.0577 25.9684 25.9247 31.5323C21.5751 34.5047 17.2913 37.7353 12.5906 40.1518C7.78448 42.6251 1.8855 44.6213 -3.31999 42.2662C-4.59723 41.6883 -5.71645 43.5794 -4.43044 44.1529C3.52264 47.7513 12.2219 43.3255 18.9153 38.9392C27.338 33.419 35.5413 27.5574 43.8762 21.9147C51.7766 16.5521 60.0369 11.2903 69.3989 8.88696C78.1772 6.63687 86.7711 7.76629 95.1631 10.8919C99.3635 12.4591 103.502 15.2695 105.82 19.2093C107.264 21.6345 106.619 25.7976 110.235 26.2923L109.972 24.2917C106.382 26.1653 109.428 30.7618 111.482 32.5129C113.064 33.8522 114.942 34.7974 116.962 35.2708C118.982 35.7442 121.085 35.7322 123.1 35.2357L121.862 33.6248C121.369 34.7448 121.145 35.9638 121.206 37.1853C121.268 38.4068 121.613 39.5973 122.216 40.6625C122.819 41.7277 123.661 42.6384 124.678 43.3225C125.695 44.0066 126.857 44.4453 128.073 44.6038L127.779 42.4544C121.88 43.6276 119.777 50.2903 123.447 54.8474L124.223 52.9781C123.281 52.9132 122.335 53.0441 121.446 53.3625C120.556 53.6809 119.743 54.1799 119.057 54.828C118.371 55.476 117.827 56.2589 117.46 57.1273C117.093 57.9957 116.911 58.9306 116.924 59.8729L119.079 59.5839C118.64 57.1456 116.226 54.3308 113.492 55.6441C111.57 56.5722 110.802 59.4132 112.557 60.8491C113.632 61.7246 115.09 60.3544 114.111 59.3038C112.162 57.2157 111.477 53.8405 108.431 52.9563C106.412 52.3697 104.218 53.0175 103.568 55.1451C103.156 56.4977 105.271 57.0712 105.684 55.7273C106.377 53.4684 104.806 51.319 102.589 50.7149C99.6926 49.927 97.1426 52.1552 95.2201 54.0025C94.2852 54.8999 95.4703 56.2526 96.5369 55.7185C99.0079 54.5015 100.891 51.2534 99.1264 48.6881C97.7219 46.6438 94.474 46.2366 92.8588 48.2197C91.981 49.301 93.5215 50.8463 94.4125 49.765L94.4389 49.7519Z" fill="#050505"/>
<path d="M92.7185 48.014C83.7472 53.4291 83.5804 65.0866 87.5438 73.6755C89.9534 78.9024 93.6402 83.7177 97.5466 87.9159C101.563 92.2278 106.36 95.3578 111.495 98.1682C121.643 103.758 131.79 108.569 143.321 110.474C153.55 112.154 164.003 111.937 174.154 109.834C185.99 107.417 197.129 102.376 206.748 95.0864C207.854 94.2415 206.748 92.3372 205.637 93.1952C189.964 105.168 169.958 110.732 150.335 109.147C140.142 108.301 130.213 105.475 121.107 100.83C116.17 98.3345 111.153 95.7474 106.531 92.6962C101.633 89.4699 97.6914 85.1404 94.2415 80.4389C90.7083 75.6235 87.4691 70.0465 87.1751 63.9485C86.9073 58.4984 89.0317 52.825 93.8509 49.9095C95.0579 49.1828 93.9563 47.2829 92.7449 48.0228L92.7185 48.014Z" fill="#050505"/>
<path d="M1.10019 83.4375C-0.18582 85.8495 2.24136 87.548 4.30425 88.2791C7.94722 89.5661 12.2047 89.5136 15.9793 88.8132C18.3845 88.3754 22.5366 87.3992 23.4408 84.7157C24.2967 82.238 21.4262 80.8021 19.4379 80.5176C18.6172 80.3994 18.2616 81.6558 19.0912 81.774C20.0963 81.9184 21.5798 82.1811 22.0714 83.2273C22.7429 84.6457 21.1936 85.5562 20.2104 86.0903C18.5268 86.9228 16.7128 87.4617 14.8469 87.6838C12.8026 87.987 10.7289 88.0414 8.67142 87.8457C7.45125 87.7275 0.771009 86.8433 2.21503 84.0985C2.61005 83.3587 1.48205 82.6977 1.08264 83.4375H1.10019Z" fill="#050505"/>
<path d="M3.62859 69.2978C2.82977 76.3851 12.4946 81.1173 18.4726 79.804C21.3782 79.1693 24.3013 77.1994 25.4337 74.3671C26.136 72.616 24.8456 69.6349 22.8222 71.4778C22.1946 72.0513 23.1294 72.975 23.7527 72.4059C24.2531 73.3806 24.2106 74.2314 23.6254 74.958C23.3093 75.4348 22.9413 75.8752 22.5281 76.2713C21.8066 76.956 20.9741 77.514 20.0658 77.9217C17.9496 78.8431 15.5799 79.01 13.3549 78.3944C9.40467 77.3745 4.42741 73.8899 4.94532 69.3109C5.0375 68.4704 3.72076 68.4792 3.62859 69.3109V69.2978Z" fill="#050505"/>
<path d="M11.2966 61.0768C12.4948 64.7408 16.3836 66.9253 20.0748 67.3805C21.9816 67.5897 23.911 67.3489 25.7072 66.6774C27.5035 66.006 29.1163 64.9227 30.4156 63.5151C31.0037 62.9066 30.0732 61.9742 29.4851 62.5871C28.4427 63.7284 27.1694 64.6362 25.7493 65.2505C24.3291 65.8647 22.7945 66.1715 21.2467 66.1504C17.8056 66.0629 13.7106 64.198 12.5738 60.7266C12.3104 59.9255 11.0376 60.2888 11.3053 61.0768H11.2966Z" fill="#050505"/>
<path d="M28.0439 53.3809C27.4074 58.8529 33.3986 62.7534 37.814 64.5132C42.7562 66.4787 48.5981 66.0847 52.3903 62.0661L51.2886 61.7772C52.5395 66.2511 59.7026 65.1217 63.0295 64.5438C63.8635 64.3994 63.508 63.1342 62.6784 63.2787C60.2029 63.7165 53.5183 64.859 52.5571 61.427C52.525 61.3177 52.4652 61.2185 52.3834 61.1391C52.3016 61.0597 52.2006 61.0027 52.0902 60.9736C51.9798 60.9446 51.8638 60.9444 51.7534 60.9732C51.6429 61.002 51.5418 61.0588 51.4598 61.1381C48.1855 64.6007 43.1863 65.0779 38.8499 63.5063C34.7417 62.0136 28.7549 58.4415 29.3606 53.3809C29.4615 52.5448 28.1448 52.5492 28.0439 53.3809Z" fill="#050505"/>
<path d="M48.3536 49.0996C50.7237 52.6017 53.7039 55.9943 57.8561 57.3295C61.4464 58.4808 65.5238 57.8242 68.1793 55.0619L67.1434 54.9262C68.3646 57.1134 70.2571 58.8521 72.5428 59.8867C74.8284 60.9214 77.3866 61.1973 79.8411 60.674C80.6707 60.4989 80.3196 59.2338 79.4944 59.4089C77.3168 59.8602 75.0515 59.6023 73.0319 58.6732C71.0123 57.744 69.3451 56.1928 68.2758 54.2477C68.2242 54.1622 68.1539 54.0895 68.0701 54.035C67.9863 53.9805 67.8912 53.9456 67.792 53.933C67.6927 53.9203 67.5919 53.9303 67.4971 53.962C67.4023 53.9938 67.3159 54.0465 67.2444 54.1163C64.6811 56.7823 60.7265 57.1238 57.404 55.7404C53.9849 54.3177 51.5182 51.4066 49.5036 48.4211C49.0295 47.725 47.8884 48.3817 48.3668 49.0821L48.3536 49.0996Z" fill="#050505"/>
<path d="M51.2675 28.0347C53.9449 30.1359 57.6317 30.3811 60.2871 28.0566C60.726 27.6801 61.5249 26.1173 61.9199 25.9466C62.6441 25.6358 63.9828 26.9578 64.6411 27.2598C66.6082 28.1761 68.7797 28.5682 70.9439 28.398C71.7866 28.3411 71.791 27.0278 70.9439 27.0847C68.6509 27.2828 66.3524 26.7723 64.3602 25.6226C63.5746 25.1586 62.6046 24.0029 61.5556 24.4319C60.5768 24.8303 60.1642 26.4456 59.361 27.1198C57.2499 28.9058 54.3223 28.7614 52.2068 27.0979C51.544 26.5813 50.6091 27.505 51.2719 28.0259L51.2675 28.0347Z" fill="#050505"/>
<path d="M68.3287 22.5889C70.8392 26.1697 75.461 29.0896 79.7667 26.5287C79.894 26.4543 80.7016 25.7801 80.8201 25.7276C81.1493 25.106 81.6365 25.0841 82.2729 25.6532L82.6021 26.1391C83.4799 26.9052 83.9934 27.7019 85.0293 28.2972C86.9067 29.363 89.1268 29.6566 91.2179 29.1159C92.0431 28.9189 91.692 27.6494 90.8712 27.8507C89.648 28.1654 88.3619 28.1404 87.152 27.7786C85.942 27.4167 84.8543 26.7317 84.0066 25.7976C83.2956 24.9878 82.624 23.2411 81.2107 23.6351C80.627 23.8015 80.3022 24.4187 79.894 24.7995C78.917 25.6591 77.6634 26.1406 76.3608 26.1566C73.4069 26.2354 71.0631 24.1954 69.4698 21.9191C68.9914 21.2318 67.8459 21.8885 68.3331 22.5845L68.3287 22.5889Z" fill="#050505"/>
<path d="M87.2009 34.0275C87.1087 35.8267 88.421 36.978 90.0275 37.5734C92.696 38.5671 95.0574 37.8448 97.704 37.4289C99.6089 37.1312 99.4597 38.3044 100.487 39.3813C101.128 40.0238 101.9 40.521 102.752 40.8391C105.385 41.8678 108.457 41.4257 111.187 41.2243C112.03 41.1586 112.034 39.8454 111.187 39.911C109.041 40.0686 106.776 40.3488 104.643 39.9723C103.23 39.7315 101.795 39.1449 100.97 37.9017C100.601 37.3457 100.491 36.6322 99.96 36.1901C98.854 35.2839 97.5109 36.1901 96.3171 36.479C94.342 36.9693 88.342 37.3545 88.5176 34.0275C88.5615 33.1826 87.2448 33.187 87.2009 34.0275Z" fill="#050505"/>
<path d="M88.1102 39.3113C86.7934 44.4725 91.977 47.0772 96.0106 48.4036C97.3537 48.8413 97.933 46.7357 96.5944 46.2936C93.8248 45.3787 89.2645 43.667 90.2389 39.8935C90.59 38.5277 88.4832 37.9455 88.1233 39.3113H88.1102Z" fill="#050505"/>
<path d="M2.31936 91.7943C-0.937365 97.2664 1.05529 104.187 5.97989 107.935C11.8086 112.373 19.6213 112.054 26.2488 109.786C29.8832 108.525 33.3567 106.842 36.5984 104.774C39.8156 102.738 42.5018 100.199 45.4644 97.8398C47.2003 96.3853 49.4295 95.6504 51.6926 95.7867C53.6589 95.8655 55.6121 96.2245 57.574 95.8874C60.6113 95.3884 63.1262 93.4885 65.0355 91.164C66.1249 89.8177 67.0831 88.3709 67.8972 86.8433C68.3712 85.9678 68.7311 84.9259 69.3851 84.1511C70.4253 82.9078 71.6762 82.9516 73.151 82.9822C75.9073 83.0391 79.0719 82.5445 79.4713 79.2875C79.6425 77.8911 77.4479 77.9042 77.2767 79.2875C76.9651 81.8178 71.1013 80.4651 69.3763 81.3056C67.0501 82.4394 66.282 85.3899 64.9872 87.4343C63.3852 90.0039 61.195 92.6042 58.1841 93.5016C55.1731 94.399 51.9033 93.147 48.7914 93.7511C46.0438 94.2852 43.9897 96.172 41.9619 97.9668C39.3516 100.289 36.5069 102.336 33.4733 104.074C27.5305 107.471 20.1787 110.39 13.2351 108.867C6.29151 107.344 -0.0770987 100.042 4.18035 92.8975C4.90455 91.6849 3.00845 90.5818 2.28425 91.7943H2.31936Z" fill="#050505"/>
<path d="M77.6325 78.9767C78.9756 89.2947 87.666 97.5684 98.0946 98.3257L97.0368 97.5246C99.9512 105.098 107.167 110.579 115.357 111.016C118.052 111.161 120.488 110.903 123.108 111.8C125.491 112.619 127.818 113.577 130.258 114.23C134.937 115.49 139.703 115.801 144.215 113.792L142.605 113.135C142.995 115.425 145.203 116.361 147.275 116.76C151.08 117.491 155.013 117.819 158.858 118.34C162.413 118.822 165.994 119.487 169.576 119.745C172.253 119.934 174.777 119.592 176.84 117.771L175.115 117.552C176.269 119.303 178.121 119.885 180.167 119.614C182.708 119.281 184.486 117.535 186.702 116.44C189.832 114.891 193.501 116.589 196.823 116.703C200.005 116.8 203.18 116.356 206.212 115.39C207.555 114.952 206.98 112.855 205.628 113.28C203.029 114.12 200.315 114.548 197.583 114.549C194.853 114.549 192.246 113.63 189.546 113.577C187.352 113.538 185.596 114.497 183.792 115.639C182.072 116.738 178.626 118.918 177.002 116.462C176.915 116.32 176.797 116.2 176.657 116.109C176.517 116.019 176.358 115.961 176.192 115.94C176.027 115.919 175.859 115.935 175.7 115.988C175.542 116.04 175.397 116.128 175.277 116.243C173.35 117.942 170.656 117.723 168.255 117.443C165.301 117.093 162.36 116.646 159.411 116.248L151.339 115.153C149.522 114.908 145.106 114.996 144.694 112.57C144.562 111.804 143.662 111.664 143.083 111.918C134.191 115.858 126.282 108.709 117.521 108.832C109.511 108.941 102.062 104.577 99.126 96.9424C99.0535 96.7163 98.9132 96.5179 98.7241 96.3739C98.5349 96.2298 98.306 96.1471 98.0683 96.1369C88.9521 95.4759 80.9814 88.0471 79.8007 78.9767C79.6208 77.6021 77.4262 77.5846 77.6062 78.9767H77.6325Z" fill="#050505"/>
<path d="M71.541 101.302C75.6317 117.368 84.3924 134.161 101.571 138.994C101.738 139.034 101.913 139.009 102.061 138.922C102.209 138.836 102.317 138.696 102.363 138.531C102.408 138.366 102.388 138.191 102.306 138.041C102.224 137.891 102.086 137.779 101.923 137.728C85.2 133.023 76.786 116.558 72.8095 100.957C72.6032 100.138 71.3303 100.484 71.541 101.307V101.302Z" fill="#050505"/>
<path d="M61.8498 107.387C61.7815 107.959 61.8282 108.538 61.9873 109.091C62.1463 109.645 62.4144 110.161 62.776 110.609C63.218 111.166 63.795 111.602 64.4526 111.874C65.111 112.146 65.8264 112.08 66.3882 112.544C66.95 113.008 66.9412 113.818 67.266 114.553C67.5472 115.149 67.9338 115.689 68.4072 116.147C69.3484 117.04 70.5706 117.579 71.8658 117.675C72.7085 117.762 72.7042 116.449 71.8658 116.361C71.0635 116.288 70.2994 115.986 69.665 115.49C69.0306 114.995 68.5528 114.328 68.2887 113.569C68.0341 112.794 68.078 111.971 67.4109 111.419C66.8315 110.951 66.1161 110.981 65.4358 110.815C64.7 110.624 64.0612 110.168 63.6429 109.535C63.2245 108.902 63.0564 108.137 63.171 107.387C63.2544 106.547 61.9376 106.556 61.8542 107.387H61.8498Z" fill="#050505"/>
<path d="M52.8557 110.522C53.8477 112.807 55.5463 113.805 57.8593 114.409C59.457 114.825 60.5367 115.924 62.0378 116.576C63.1783 117.055 64.3838 117.362 65.6149 117.486C66.4576 117.587 66.4488 116.274 65.6149 116.173C64.2807 116.023 62.9868 115.623 61.8008 114.996C60.8878 114.51 60.1329 113.682 59.1673 113.315C58.329 112.978 57.3765 113.091 56.5338 112.68C55.3691 112.078 54.4618 111.077 53.9793 109.861C53.6458 109.086 52.5134 109.756 52.8426 110.522H52.8557Z" fill="#050505"/>
<path d="M46.2996 110.828C46.1696 112.07 46.3588 113.325 46.8493 114.474C47.3398 115.624 48.1155 116.629 49.1033 117.397C50.0912 118.165 51.2587 118.669 52.4959 118.862C53.7331 119.056 54.9993 118.932 56.1752 118.502L55.3763 118.042C55.7625 119.381 56.5416 120.574 57.6132 121.467C58.6848 122.36 60 122.913 61.3894 123.055C62.0654 123.116 62.7852 122.884 63.4435 123.011C64.3477 123.186 65.0807 124.062 65.8707 124.57C66.4955 125.027 67.2057 125.355 67.9594 125.535C68.7131 125.714 69.4953 125.742 70.2598 125.616C71.0938 125.476 70.7383 124.211 69.9087 124.351C66.9636 124.845 65.9102 121.724 63.3733 121.623C62.1883 121.58 61.3324 121.882 60.1341 121.44C59.3051 121.127 58.5605 120.626 57.9594 119.976C57.3583 119.326 56.9172 118.546 56.6711 117.697C56.622 117.53 56.5098 117.389 56.3583 117.303C56.2068 117.217 56.0278 117.194 55.8591 117.237C51.3998 118.774 47.2345 115.508 47.6515 110.828C47.7261 109.988 46.4094 109.992 46.3347 110.828H46.2996Z" fill="#050505"/>
<path d="M76.7078 19.7172C78.4358 20.7629 80.4749 21.1762 82.4751 20.8861C83.3177 20.7639 84.1364 20.5129 84.9023 20.1419C85.1261 20.0368 86.0215 19.2663 86.2409 19.3276C86.8379 19.4327 86.5701 19.691 86.8379 20.1244C87.9088 21.8754 88.8481 23.1099 90.8539 23.911C93.2065 24.8478 95.7873 24.7165 98.2628 24.5764L97.6263 24.0948C98.0214 25.7846 96.7705 27.3955 97.3586 29.0634C97.7311 29.943 98.42 30.6519 99.2898 31.0508C100.971 31.9745 103.538 32.7581 104.996 31.1121C105.553 30.4818 104.627 29.5493 104.065 30.1841C103.187 31.1603 101.897 30.6963 100.914 30.3285C99.4127 29.777 98.4339 29.2429 98.6183 27.2073C98.7368 25.9553 99.1976 25.0185 98.8948 23.7446C98.8552 23.6073 98.7724 23.4864 98.6586 23.3997C98.5448 23.3129 98.406 23.2651 98.2628 23.2631C95.6819 23.4119 92.7456 23.6396 90.4326 22.2563C89.3434 21.6479 88.4984 20.6829 88.0405 19.5246C87.843 19.0124 87.7903 18.3252 87.2856 17.9837C86.3814 17.3752 85.5299 18.2814 84.7925 18.7192C83.6556 19.3584 82.368 19.6829 81.063 19.6591C79.758 19.6352 78.4832 19.2639 77.3705 18.5834C77.2202 18.5032 77.0446 18.4842 76.8805 18.5305C76.7165 18.5768 76.5768 18.6847 76.491 18.8316C76.4051 18.9785 76.3797 19.1529 76.4202 19.3181C76.4606 19.4832 76.5637 19.6263 76.7078 19.7172Z" fill="#050505"/>
<path d="M75.8111 100.86C82.3553 106.367 85.5374 116.024 94.4781 118.432C94.5759 118.457 94.6781 118.46 94.7772 118.44C94.8762 118.42 94.9694 118.378 95.0497 118.317C95.13 118.256 95.1953 118.177 95.2407 118.087C95.2862 117.997 95.3105 117.898 95.312 117.797C95.4133 116.03 95.0881 114.265 94.3639 112.649L94.1269 113.551C95.7597 112.815 97.7919 115.928 98.7794 116.926C99.9645 118.121 101.207 119.268 102.497 120.354C107.375 124.482 112.9 127.783 118.851 130.125C120.791 130.886 123.266 131.876 124.903 130.059C125.023 129.934 125.089 129.767 125.089 129.595C125.089 129.422 125.023 129.256 124.903 129.131L116.384 119.824L116.252 120.853C118.741 119.758 123.179 123.068 125.233 124.329C127.506 125.721 129.705 127.235 131.93 128.706C136.284 131.587 140.77 134.266 145.87 135.583C145.982 135.613 146.1 135.612 146.212 135.581C146.324 135.551 146.426 135.492 146.507 135.41C146.589 135.328 146.648 135.226 146.678 135.114C146.708 135.003 146.708 134.885 146.678 134.774C145.554 131.153 141.973 129.792 139.216 127.642C138.11 126.767 135.771 124.74 138.102 123.808C139.014 123.44 140.265 123.738 141.174 124.018C143.922 124.893 146.529 126.259 149.166 127.41C153.117 129.131 158.142 131.381 162.562 130.567C167.592 129.643 161.526 124.718 160.003 123.462V124.39C161.276 122.95 163.256 123.624 164.831 124.132C166.575 124.737 168.362 125.211 170.177 125.55C173.442 126.072 176.771 126.042 180.026 125.462C180.86 125.318 180.509 124.053 179.675 124.197C175.111 125.005 170.416 124.659 166.021 123.19C163.756 122.433 160.885 121.382 159.033 123.484C158.911 123.607 158.842 123.774 158.842 123.948C158.842 124.121 158.911 124.288 159.033 124.412C159.964 125.182 161.228 126.031 161.904 127.038C162.521 127.386 162.624 127.861 162.211 128.465C162.299 129.268 161.983 129.56 161.263 129.341C160.684 129.503 159.779 129.271 159.204 129.205C156.608 128.837 154.074 128.123 151.668 127.082C149.206 126.088 146.818 124.924 144.374 123.895C142.697 123.186 140.963 122.354 139.107 122.376C136.162 122.411 134.718 124.784 136.728 127.17C139.247 130.195 144.15 131.109 145.405 135.132L146.217 134.327C140.072 132.738 134.902 129.113 129.692 125.651C127.214 123.946 124.636 122.392 121.972 120.997C119.97 119.986 117.802 118.752 115.585 119.728C115.499 119.779 115.426 119.85 115.371 119.933C115.316 120.017 115.28 120.112 115.267 120.212C115.254 120.311 115.264 120.412 115.295 120.507C115.327 120.602 115.379 120.689 115.449 120.761L123.99 130.068V129.14C122.647 130.628 119.983 129.183 118.548 128.597C117.043 127.979 115.559 127.283 114.111 126.544C111.136 125.005 108.3 123.212 105.635 121.185C103.068 119.233 100.673 117.063 98.4766 114.702C97.1159 113.244 95.6192 111.463 93.4817 112.426C93.3337 112.516 93.2263 112.66 93.1821 112.827C93.138 112.994 93.1604 113.172 93.2447 113.323C93.8487 114.734 94.1074 116.267 93.9996 117.797L94.8336 117.162C86.2265 114.847 83.0751 105.26 76.746 99.9278C76.1008 99.3894 75.1659 100.313 75.8155 100.86H75.8111Z" fill="#050505"/>
<path d="M33.43 67.6782C34.8357 69.2824 36.6442 70.4843 38.6699 71.1606C40.6955 71.8369 42.8651 71.963 44.9558 71.5261L44.1219 70.8913C44.2272 75.0719 49.0421 76.9499 51.8906 73.8243H50.9601C53.5936 76.4509 57.6974 77.913 60.6162 74.875C61.2044 74.2665 60.2739 73.3384 59.6857 73.9469C57.2761 76.4465 53.9799 74.9713 51.8819 72.8919C51.7573 72.771 51.5904 72.7034 51.4166 72.7034C51.2428 72.7034 51.0759 72.771 50.9514 72.8919C48.906 75.1376 45.5089 73.9732 45.4298 70.8913C45.4278 70.791 45.4029 70.6924 45.3572 70.6029C45.3115 70.5135 45.246 70.4355 45.1658 70.3749C45.0856 70.3142 44.9927 70.2725 44.894 70.2528C44.7953 70.233 44.6934 70.2358 44.5959 70.261C42.7304 70.6383 40.7977 70.5127 38.9971 69.8972C37.1964 69.2816 35.5929 68.1983 34.3517 66.7589C33.7899 66.1241 32.8638 67.0566 33.4212 67.6869L33.43 67.6782Z" fill="#050505"/>
<path d="M119.207 41.627C119.049 42.5682 118.812 43.4087 118.066 44.0697C116.912 45.0985 115.024 45.1116 114.656 43.2905C114.623 43.1812 114.562 43.0822 114.48 43.0029C114.398 42.9235 114.297 42.8667 114.186 42.8376C114.075 42.8086 113.959 42.8085 113.848 42.8372C113.738 42.8659 113.636 42.9225 113.554 43.0016C112.475 44.2362 110.981 45.0348 109.353 45.2468C107.724 45.4589 106.075 45.0698 104.714 44.1529C104.003 43.6845 103.345 44.8183 104.047 45.2867C105.66 46.3487 107.603 46.7959 109.519 46.5467C111.436 46.2976 113.198 45.3686 114.484 43.9297L113.383 43.6407C113.555 44.4423 114.029 45.147 114.709 45.6085C115.388 46.0699 116.219 46.2525 117.03 46.1184C119.071 45.812 120.168 43.8202 120.476 41.9729C120.616 41.1455 119.348 40.7909 119.207 41.627Z" fill="#050505"/>
<path d="M58.6451 139.401C53.4089 137.847 48.515 135.155 44.7711 131.136C40.382 126.452 39.0214 120.529 37.1209 114.606C36.8619 113.805 35.5891 114.146 35.848 114.956C37.8275 121.124 39.2979 127.192 43.8406 132.064C47.7338 136.245 52.8515 139.068 58.2984 140.666C59.1104 140.907 59.4571 139.642 58.6451 139.401Z" fill="#050505"/>
<path d="M44.8118 139.401C39.2771 137.899 34.0584 135.211 30.5164 130.589C26.6496 125.541 24.9335 119.207 25.3065 112.886C25.3592 112.041 24.0425 112.045 23.9898 112.886C23.546 119.511 25.4936 126.076 29.4806 131.394C33.1938 136.236 38.6582 139.094 44.465 140.666C44.6313 140.707 44.807 140.681 44.9547 140.595C45.1024 140.508 45.2106 140.368 45.2563 140.203C45.302 140.039 45.2816 139.863 45.1994 139.713C45.1172 139.563 44.9798 139.451 44.8162 139.401H44.8118Z" fill="#050505"/>
<path d="M12.7266 116.734C12.7447 121.586 14.0463 126.348 16.5001 130.539C18.9538 134.729 22.4727 138.2 26.7015 140.6C26.8518 140.681 27.0275 140.7 27.1915 140.653C27.3555 140.607 27.4952 140.499 27.5811 140.352C27.6669 140.205 27.6923 140.031 27.6519 139.866C27.6114 139.7 27.5083 139.557 27.3643 139.466C23.3343 137.182 19.9804 133.877 17.6414 129.885C15.3024 125.893 14.0612 121.357 14.0433 116.734C14.0433 116.559 13.9739 116.392 13.8505 116.269C13.727 116.146 13.5595 116.077 13.3849 116.077C13.2103 116.077 13.0429 116.146 12.9194 116.269C12.7959 116.392 12.7266 116.559 12.7266 116.734Z" fill="#050505"/>
<path d="M3.94377 122.595C2.6797 131.022 11.177 135.969 16.9663 140.346C17.6422 140.854 18.283 139.716 17.6334 139.213C12.4367 135.303 4.07105 130.602 5.21222 122.963C5.33512 122.136 4.06666 121.781 3.94377 122.617V122.595Z" fill="#050505"/>
</svg>
